PathFileType	4	(X/Y/Z)	33_2_87_p0_0-559.trc
DataRate	CameraRate	NumFrames	NumMarkers	Units	OrigDataRate	OrigDataStartFrame	OrigNumFrames
60.0	60.0	5	27	m	60.0	350	560
Frame#	Time	RHip			RKnee			RAnkle			RBigToe			RSmallToe			RHeel			LHip			LKnee			LAnkle			LBigToe			LSmallToe			LHeel			Neck			Head			Nose			RShoulder			RElbow			RWrist			RThumb			RIndex			RPinky			LShoulder			LElbow			LWrist			LThumb			LIndex			LPinky			
		X1	Y1	Z1	X2	Y2	Z2	X3	Y3	Z3	X4	Y4	Z4	X5	Y5	Z5	X6	Y6	Z6	X7	Y7	Z7	X8	Y8	Z8	X9	Y9	Z9	X10	Y10	Z10	X11	Y11	Z11	X12	Y12	Z12	X13	Y13	Z13	X14	Y14	Z14	X15	Y15	Z15	X16	Y16	Z16	X17	Y17	Z17	X18	Y18	Z18	X19	Y19	Z19	X20	Y20	Z20	X21	Y21	Z21	X22	Y22	Z22	X23	Y23	Z23	X24	Y24	Z24	X25	Y25	Z25	X26	Y26	Z26	X27	Y27	Z27	
350	5.833333333333333	0.2973618305322608	0.40196459321483813	0.1662242287889195	0.2793548627311558	0.5457857068559492	0.5573141371240491	0.2566687171129317	0.7275247590694789	0.9197015968981094	0.2602409779915493	0.6059865599888878	1.005938507048736	0.32935629353855245	0.6279914999540456	1.0002540889803235	0.21960508989296268	0.848169924031088	0.9813863722875983	0.09126180597087095	0.3677807290147032	0.15905763810048965	0.07326866665663287	0.5749268334856287	0.5429283210931762	0.06735903129587081	0.802197265037982	0.9303515700642133	0.08334146856183948	0.6057802106314265	0.9970133156877145	0.029023284652355413	0.6650864338106779	0.9973904113127765	0.07683403597359992	0.8452372794516098	0.9547694494714496	0.241029451623598	0.010928690182343801	-0.3002182853689959	0.2765308075683992	-0.2104667184104369	-0.47102135204077367	0.25877035143835636	-0.17179460970396537	-0.32838891672724574	0.40101904810321765	0.03673218865372315	-0.22351539012657826	0.42173421103505476	0.2407100883009205	-0.030030056053979168	0.4365537479259725	0.2786935861004527	0.20460158722487395	0.34888083826177063	0.3182879332637466	0.258716054594293	0.34549019227515204	0.3138437537717408	0.27930392725174935	0.35562204320603213	0.34818214580385914	0.2895937223899991	0.061450128365102115	0.03955917989723728	-0.2628951315331522	0.01969530411375368	0.18501409945305633	-0.043390632518241795	-0.04563933629593703	0.2745959722485132	0.16718874170336348	0.023212687875960432	0.2938065632314613	0.22840085149410436	0.0277094165632361	0.3038869156782295	0.257564756606578	0.008660434497790928	0.3205907339853368	0.2672364280692017
351	5.85	0.30006649454364054	0.414677625700336	0.16427293658507286	0.2802374613226706	0.5749049957496675	0.5476789279310387	0.2567691497850685	0.7271933730459009	0.9196119399060262	0.2626839376428858	0.6208088619090228	1.0070968798208146	0.3295152581904248	0.6282369595337882	1.0000386978381055	0.2208006275371938	0.8454988650748757	0.9768121327752166	0.09103756291415781	0.3672108286453685	0.15547962522261502	0.07287229391231691	0.5720746482770851	0.5389497906643146	0.06779791641664283	0.802396688296058	0.9338145358716783	0.07782187630545867	0.6262418968075443	1.0027835445791975	0.02260416581326992	0.6812134050032683	0.999070786400474	0.07718584524923378	0.8442616212400339	0.9590073286771423	0.24085826875295532	0.009545333934249936	-0.30368082021279996	0.27198385638720396	-0.20213625185988163	-0.47852398368560045	0.25860840562996773	-0.17502144985545573	-0.3344829439591931	0.39645962685754577	0.046410666919581026	-0.2308348066376748	0.421969855018019	0.24058859747527128	-0.0344993031943145	0.44452496141968395	0.2926938039847187	0.19893255221424502	0.3521905270231678	0.3244165075558491	0.24717578176724347	0.3491741548008975	0.3249855068516511	0.2740443767828282	0.36809412383173695	0.33618260429325075	0.29091823374400905	0.06137607430975252	0.03735095825783276	-0.26632851324418033	0.019597562090261214	0.182237774645074	-0.04690444729304239	-0.04508599232936124	0.27128782504356425	0.16018113402213213	0.016968139474444047	0.3324982659622701	0.21515551420332552	0.02133276464521158	0.31732829479417546	0.2555861662116281	-0.0010877260885330299	0.29995177144582214	0.2665422833297919
352	5.866666666666666	0.2973587000530869	0.4009186531432158	0.16323889682811943	0.2853877561184083	0.558266831238903	0.5474247568130243	0.2568851269494317	0.7270666479392542	0.919582397121829	0.2626283154242986	0.6207542537828851	1.0069449113089093	0.329460308324769	0.6280718852299269	1.0001889983363164	0.2269060686731426	0.8262118989927032	0.9750040690548079	0.09512794582279344	0.3693902554920545	0.15172166145122348	0.07643630269470231	0.5741667865154707	0.5349988487687717	0.06356037708317593	0.7995668389590457	0.933932311811522	0.0837145803545303	0.6064916271230861	1.001716170681329	0.028945055452980227	0.6653756413135977	0.9974289410900444	0.07724151498138462	0.8445804308585292	0.9589685651632662	0.2360625431562031	0.019490378398071183	-0.3113673415597999	0.26822957815498893	-0.20539304331323607	-0.4809819502716254	0.2585847578966672	-0.17670764124250804	-0.3380578818813304	0.3964329186446352	0.04658546860528836	-0.23106489586373086	0.4261219648603641	0.254635852023996	-0.03372216384550668	0.4489753403905113	0.30580223534590334	0.19697045211402148	0.35679457280712357	0.3373687968989567	0.2651234115903061	0.3607943563216246	0.3269772339768132	0.27783328031127275	0.37583391762318114	0.3391431527815609	0.2865010745048812	0.061426723674308285	0.03734191330966663	-0.26657720757247116	0.013908644338850714	0.192254717955237	-0.05711766310144744	-0.04408070535980209	0.282787597507331	0.14968225794485487	0.02201556552194354	0.3049432954063581	0.21940345966423414	0.01393484866231594	0.31460013543376786	0.2561472747361728	-0.013292278655311685	0.2972082511250766	0.2669758222088068
353	5.883333333333334	0.30018533356641436	0.4086556435080474	0.1530675179562184	0.2841904380148781	0.5521641820977606	0.5398479915728985	0.2568597529625409	0.7268565229044713	0.919429988183797	0.26265702874380986	0.6205022456174264	1.0071093814804966	0.32938713162408806	0.6277313471962696	1.0005924198004639	0.22688531840198015	0.826073169240367	0.9747188950003308	0.0944086865386805	0.36342482894604505	0.14327646152253043	0.07639180051851674	0.5741526264441137	0.5347792070855211	0.06352920856475865	0.7994858585884376	0.9339809654456539	0.08421923326925079	0.6097269292063292	1.0053288687407675	0.029098849750889822	0.6653117151148035	0.9972623069955086	0.07719070937810052	0.8448367634647274	0.9590103498187581	0.23586108377242437	0.017724559586498153	-0.31452330074601914	0.26544442265036994	-0.21758765493372087	-0.4823309498780914	0.2582863033628393	-0.17918340080736045	-0.3440518816366696	0.39646164190279987	0.04414199348832933	-0.2373709403016587	0.430373974335304	0.23218857775200383	-0.044368282356811284	0.46003487212390554	0.3176277209777966	0.1860468449912265	0.3612587497140538	0.33652243425077544	0.2575599282546952	0.36584128998802995	0.34753195527691155	0.2759275823075557	0.3831740008686808	0.34842745244761536	0.2763925461635569	0.061167201541166234	0.03554347029477217	-0.26986719735429704	-0.0024115586435244237	0.21493211974265897	-0.0667276787135147	-0.046193564350256386	0.2655999626952867	0.14516506059933812	0.007558623478789759	0.3020541114125745	0.22173842855542	0.007625946249918152	0.29655602949356724	0.2553953579463364	-0.016925231090753532	0.29877816620160164	0.26317581214576785
354	5.9	0.2968404082697611	0.3932610994441534	0.15168702278170337	0.2850927574117052	0.55053184802273	0.5353730304436068	0.2623914675228393	0.726389381383562	0.9153016724494456	0.2548241955150444	0.6228780386514671	1.0078562980839225	0.32932501716935	0.6276106463010327	1.000526421769148	0.22652098403785426	0.8256900195559731	0.970982059982799	0.09902499686012815	0.36123967114714367	0.13551520346825713	0.08027229583739821	0.5768966011156816	0.5344150860470717	0.06355162509379238	0.7994179217329999	0.9333860015466041	0.07774060245714698	0.6230916542942491	1.003255396854742	0.023757570160277137	0.6792163535684639	0.9955742486496315	0.07862299677880975	0.8419904305524547	0.9540858016665061	0.23568859846342483	0.01628419656600865	-0.3179672120485672	0.2651000394125842	-0.21802768388619365	-0.48555517679430776	0.2545639751996607	-0.1824596173288053	-0.3465870329903787	0.39186738107996644	0.05734174700756291	-0.23864125518661505	0.4355104825554968	0.23635284353144845	-0.04183232206073106	0.4678255474462654	0.3202320358079354	0.18512385984185045	0.38230888751886066	0.3138640652666412	0.24387093077622635	0.39465202418537015	0.30500886770154917	0.275372373220135	0.3973624918925462	0.3255300211918916	0.2902192377105116	0.060095195872018135	0.046919986376854544	-0.27722801544941067	-0.011878960744296379	0.22277255396197174	-0.07619764114200572	-0.057394733167437824	0.26135698488900994	0.14102904507743	0.005736993886531831	0.28634044816419224	0.22369920235957147	-0.009698846798816356	0.25267334548598896	0.26256449650558716	-0.03940270870744153	0.278031977950812	0.2552159990539108
